HIERARCHY
ROOT hip
{
  OFFSET 0 0 0
  CHANNELS 6 Xposition Yposition Zposition Zrotation Yrotation Xrotation
  JOINT abdomen
  {
    OFFSET 0 20.6881 -0.73152
    CHANNELS 3 Zrotation Xrotation Yrotation
    JOINT chest
    {
      OFFSET 0 11.7043 -0.48768
      CHANNELS 3 Zrotation Xrotation Yrotation
      JOINT neck
      {
        OFFSET 0 22.1894 -2.19456
        CHANNELS 3 Zrotation Xrotation Yrotation
        JOINT head
        {
          OFFSET -0.24384 7.07133 1.2192
          CHANNELS 3 Zrotation Xrotation Yrotation
          JOINT leftEye
          {
            OFFSET 4.14528 8.04674 8.04672
            CHANNELS 3 Zrotation Xrotation Yrotation
            End Site
            {
              OFFSET 1 0 0
            }
          }
          JOINT rightEye
          {
            OFFSET -3.6576 8.04674 8.04672
            CHANNELS 3 Zrotation Xrotation Yrotation
            End Site
            {
              OFFSET 1 0 0
            }
          }
        }
      }
      JOINT rCollar
      {
        OFFSET -2.68224 19.2634 -4.8768
        CHANNELS 3 Zrotation Xrotation Yrotation
        JOINT rShldr
        {
          OFFSET -8.77824 -1.95073 1.46304
          CHANNELS 3 Zrotation Xrotation Yrotation
          JOINT rForeArm
          {
            OFFSET -28.1742 -1.7115 0.48768
            CHANNELS 3 Zrotation Xrotation Yrotation
            JOINT rHand
            {
              OFFSET -22.5879 0.773209 7.07136
              CHANNELS 3 Zrotation Xrotation Yrotation
              JOINT rThumb1
              {
                OFFSET -1.2192 -0.487915 3.41376
                CHANNELS 3 Zrotation Xrotation Yrotation
                JOINT rThumb2
                {
                  OFFSET -3.37035 -0.52449 3.41376
                  CHANNELS 3 Zrotation Xrotation Yrotation
                  End Site
                  {
                    OFFSET -1.78271 -1.18214 1.43049
                  }
                }
              }
              JOINT rIndex1
              {
                OFFSET -7.75947 0.938293 5.60832
                CHANNELS 3 Zrotation Xrotation Yrotation
                JOINT rIndex2
                {
                  OFFSET -2.54057 -0.884171 1.56538
                  CHANNELS 3 Zrotation Xrotation Yrotation
                  End Site
                  {
                    OFFSET -1.62519 -0.234802 1.16502
                  }
                }
              }
              JOINT rMid1
              {
                OFFSET -8.24714 1.18213 3.41376
                CHANNELS 3 Zrotation Xrotation Yrotation
                JOINT rMid2
                {
                  OFFSET -3.10165 -0.590103 1.0647
                  CHANNELS 3 Zrotation Xrotation Yrotation
                  End Site
                  {
                    OFFSET -2.48547 -0.328903 0.83742
                  }
                }
              }
              JOINT rRing1
              {
                OFFSET -8.82822 0.546677 1.51678
                CHANNELS 3 Zrotation Xrotation Yrotation
                JOINT rRing2
                {
                  OFFSET -2.60934 -0.819778 -0.0198488
                  CHANNELS 3 Zrotation Xrotation Yrotation
                  End Site
                  {
                    OFFSET -2.33842 -0.294052 0.168128
                  }
                }
              }
              JOINT rPinky1
              {
                OFFSET -8.27202 -0.0477905 -0.4584
                CHANNELS 3 Zrotation Xrotation Yrotation
                JOINT rPinky2
                {
                  OFFSET -1.82734 -0.647385 -0.700984
                  CHANNELS 3 Zrotation Xrotation Yrotation
                  End Site
                  {
                    OFFSET -1.69225 -0.51767 -0.607171
                  }
                }
              }
            }
          }
        }
      }
      JOINT lCollar
      {
        OFFSET 2.68224 19.2634 -4.8768
        CHANNELS 3 Zrotation Xrotation Yrotation
        JOINT lShldr
        {
          OFFSET 8.77824 -1.95073 1.46304
          CHANNELS 3 Zrotation Xrotation Yrotation
          JOINT lForeArm
          {
            OFFSET 28.1742 -1.7115 0.48768
            CHANNELS 3 Zrotation Xrotation Yrotation
            JOINT lHand
            {
              OFFSET 22.5879 0.773209 7.07136
              CHANNELS 3 Zrotation Xrotation Yrotation
              JOINT lThumb1
              {
                OFFSET 1.2192 -0.487915 3.41376
                CHANNELS 3 Zrotation Xrotation Yrotation
                JOINT lThumb2
                {
                  OFFSET 3.37035 -0.52449 3.41376
                  CHANNELS 3 Zrotation Xrotation Yrotation
                  End Site
                  {
                    OFFSET 1.78271 -1.18214 1.43049
                  }
                }
              }
              JOINT lIndex1
              {
                OFFSET 7.75947 0.938293 5.60832
                CHANNELS 3 Zrotation Xrotation Yrotation
                JOINT lIndex2
                {
                  OFFSET 2.54057 -0.884171 1.56538
                  CHANNELS 3 Zrotation Xrotation Yrotation
                  End Site
                  {
                    OFFSET 1.62519 -0.234802 1.16502
                  }
                }
              }
              JOINT lMid1
              {
                OFFSET 8.24714 1.18213 3.41376
                CHANNELS 3 Zrotation Xrotation Yrotation
                JOINT lMid2
                {
                  OFFSET 3.10165 -0.590103 1.0647
                  CHANNELS 3 Zrotation Xrotation Yrotation
                  End Site
                  {
                    OFFSET 2.48547 -0.328903 0.83742
                  }
                }
              }
              JOINT lRing1
              {
                OFFSET 8.82822 0.546677 1.51678
                CHANNELS 3 Zrotation Xrotation Yrotation
                JOINT lRing2
                {
                  OFFSET 2.60934 -0.819778 -0.0198488
                  CHANNELS 3 Zrotation Xrotation Yrotation
                  End Site
                  {
                    OFFSET 2.33842 -0.294052 0.168128
                  }
                }
              }
              JOINT lPinky1
              {
                OFFSET 8.27202 -0.0477905 -0.4584
                CHANNELS 3 Zrotation Xrotation Yrotation
                JOINT lPinky2
                {
                  OFFSET 1.82734 -0.647385 -0.700984
                  CHANNELS 3 Zrotation Xrotation Yrotation
                  End Site
                  {
                    OFFSET 1.69225 -0.51767 -0.607171
                  }
                }
              }
            }
          }
        }
      }
    }
  }
  JOINT rButtock
  {
    OFFSET -8.77824 4.35084 1.2192
    CHANNELS 3 Zrotation Xrotation Yrotation
    JOINT rThigh
    {
      OFFSET 0 -1.70687 -2.19456
      CHANNELS 3 Zrotation Xrotation Yrotation
      JOINT rShin
      {
        OFFSET 0 -36.8199 0.73152
        CHANNELS 3 Zrotation Xrotation Yrotation
        JOINT rFoot
        {
          OFFSET 0.73152 -45.1104 -5.12064
          CHANNELS 3 Zrotation Xrotation Yrotation
          End Site
          {
            OFFSET -1.1221 -3.69964 12.103
          }
        }
      }
    }
  }
  JOINT lButtock
  {
    OFFSET 8.77824 4.35084 1.2192
    CHANNELS 3 Zrotation Xrotation Yrotation
    JOINT lThigh
    {
      OFFSET 0 -1.70687 -2.19456
      CHANNELS 3 Zrotation Xrotation Yrotation
      JOINT lShin
      {
        OFFSET 0 -36.8199 0.73152
        CHANNELS 3 Zrotation Xrotation Yrotation
        JOINT lFoot
        {
          OFFSET -0.73152 -45.1104 -5.12064
          CHANNELS 3 Zrotation Xrotation Yrotation
          End Site
          {
            OFFSET 1.1221 -3.69964 12.103
          }
        }
      }
    }
  }
}
MOTION
Frames:	4
Frame Time:	0.00833333
39.5228 31.8552 15.3585 3.5129 1.8886 89.6395 8.53137 -2.94358 7.2458 9.03822 -0.0229846 2.13708 -12.798 11.3693 -13.1552 32.889 8.51292 -24.8904 -0.0 0.0 0.0 -0.0 0.0 0.0 -7.75309e-14 2.95496e-16 1.24031e-14 -14.5539 8.02601 30.5382 -28.1199 -39.7052 83.4127 -3.38661 -45.1754 -8.1292 2.52926e-11 5.12626e-12 -4.3314e-11 4.39181e-11 -3.96197e-13 -7.1995e-11 2.52956e-11 5.12322e-12 -4.33197e-11 7.73091 5.47488 0.417314 2.52913e-11 5.13856e-12 -4.3315e-11 2.90554 0.965183 0.102902 2.52991e-11 5.1238e-12 -4.33098e-11 10.2786 0.731801 0.0259123 2.52876e-11 5.12898e-12 -4.33014e-11 2.22167 -0.733487 -0.20892 -7.74888e-14 2.63902e-16 1.21476e-14 14.0404 7.27634 -52.8069 27.9364 -40.7341 -85.2511 10.1064 -63.396 16.2966 1.4293e-11 -2.47404e-11 -5.21126e-11 2.81281e-11 -5.10423e-11 -9.05014e-11 1.42876e-11 -2.47383e-11 -5.20955e-11 -7.73091 5.47488 -0.417314 1.42934e-11 -2.47429e-11 -5.211e-11 -2.90554 0.965183 -0.102902 1.42885e-11 -2.47437e-11 -5.2104e-11 -10.2786 0.731801 -0.0259123 1.43019e-11 -2.47458e-11 -5.21119e-11 -2.22167 -0.733487 0.20892 -2.03217e-16 0.0 -3.88251e-19 14.2095 -41.5185 26.1034 -0.806273 59.6505 1.24521 -5.00124 7.9519 13.5518 2.03217e-16 0.0 3.88251e-19 2.57919 -38.2646 -4.07211 0.227324 39.7231 -1.76093 4.86973 -7.82459 27.8659
39.495 31.7731 15.3785 3.5772 1.8893 89.414 8.77875 -2.82063 7.26066 9.07943 -0.0473532 2.17071 -12.8577 11.0569 -13.1914 33.2375 8.54163 -24.9693 -0.0 0.0 0.0 -0.0 0.0 0.0 -1.01838e-13 1.47206e-14 8.03587e-14 -14.6889 9.11566 30.7766 -28.0174 -40.3127 84.4933 -3.38479 -45.1662 -8.12661 -1.75183e-10 2.67206e-10 -2.47674e-10 -2.95069e-10 4.56287e-10 -4.30279e-10 -1.75176e-10 2.67197e-10 -2.47679e-10 7.73091 5.47488 0.417314 -1.75184e-10 2.67212e-10 -2.47677e-10 2.90554 0.965183 0.102902 -1.75179e-10 2.67197e-10 -2.47672e-10 10.2786 0.731801 0.0259123 -1.7519e-10 2.67206e-10 -2.47666e-10 2.22167 -0.733487 -0.20892 -1.01824e-13 1.46994e-14 8.01723e-14 14.862 7.64718 -53.5199 27.826 -41.2442 -86.1851 10.1328 -63.4358 16.3259 3.87025e-10 1.99252e-11 -1.38208e-10 6.71884e-10 4.29154e-11 -2.1806e-10 3.87026e-10 1.99313e-11 -1.38191e-10 -7.73091 5.47488 -0.417314 3.87026e-10 1.99243e-11 -1.38207e-10 -2.90554 0.965183 -0.102902 3.87021e-10 1.99254e-11 -1.38206e-10 -10.2786 0.731801 -0.0259123 3.87031e-10 1.99229e-11 -1.38217e-10 -2.22167 -0.733487 0.20892 -2.03217e-16 0.0 -3.88251e-19 14.0875 -41.4969 25.9571 -0.863443 60.5996 1.31982 -5.08632 8.07278 13.6678 2.03217e-16 0.0 3.88251e-19 2.70499 -37.982 -3.90041 0.225167 39.9341 -1.8027 4.8455 -7.82441 27.6655
39.4663 31.6924 15.42 3.6427 1.8914 89.1826 9.00905 -2.69259 7.27416 9.10628 -0.081192 2.20667 -12.8679 10.742 -13.2421 33.4787 8.55345 -25.0634 -0.0 0.0 0.0 -0.0 0.0 0.0 -1.24527e-13 2.60638e-14 1.40201e-13 -14.8368 10.1598 31.0297 -27.9048 -40.895 85.5362 -3.38168 -45.1512 -8.12227 -3.90145e-10 5.51145e-10 -4.66848e-10 -6.58391e-10 9.51784e-10 -8.15009e-10 -3.90133e-10 5.51132e-10 -4.66852e-10 7.73091 5.47488 0.417314 -3.90145e-10 5.51145e-10 -4.66852e-10 2.90554 0.965183 0.102902 -3.90144e-10 5.5113e-10 -4.66848e-10 10.2786 0.731801 0.0259123 -3.90153e-10 5.51144e-10 -4.66845e-10 2.22167 -0.733487 -0.20892 -1.24546e-13 2.60544e-14 1.40078e-13 15.6491 7.99104 -54.2235 27.7041 -41.7529 -87.1257 10.1398 -63.4466 16.3339 7.76862e-10 7.20457e-11 -2.24344e-10 1.34507e-09 1.5089e-10 -3.44595e-10 7.76868e-10 7.20557e-11 -2.24327e-10 -7.73091 5.47488 -0.417314 7.76863e-10 7.20467e-11 -2.24343e-10 -2.90554 0.965183 -0.102902 7.76857e-10 7.20495e-11 -2.24347e-10 -10.2786 0.731801 -0.0259123 7.76865e-10 7.20469e-11 -2.24361e-10 -2.22167 -0.733487 0.20892 -2.03217e-16 0.0 -3.88251e-19 13.9449 -41.443 25.7587 -0.92356 61.52 1.39367 -5.15262 8.18591 13.726 2.03217e-16 0.0 3.88251e-19 2.80108 -37.6921 -3.74786 0.224999 40.2054 -1.84005 4.78418 -7.77865 27.4233
39.4378 31.6117 15.475 3.7021 1.892 88.9401 9.19423 -2.5324 7.27755 9.13272 -0.138334 2.24184 -12.8218 10.4113 -13.3008 33.4918 8.5796 -25.1579 -0.0 0.0 0.0 -0.0 0.0 0.0 -1.38336e-13 2.14684e-14 1.63003e-13 -15.0533 11.1571 31.3438 -27.7791 -41.4488 86.5593 -3.3915 -45.2002 -8.13619 -5.30208e-10 7.36001e-10 -6.14579e-10 -8.94589e-10 1.275e-09 -1.07485e-09 -5.30194e-10 7.35986e-10 -6.14582e-10 7.73091 5.47488 0.417314 -5.30207e-10 7.35996e-10 -6.14582e-10 2.90554 0.965183 0.102902 -5.30208e-10 7.35983e-10 -6.1458e-10 10.2786 0.731801 0.0259123 -5.30216e-10 7.35999e-10 -6.14579e-10 2.22167 -0.733487 -0.20892 -1.38381e-13 2.14684e-14 1.62904e-13 16.3752 8.34316 -54.88 27.5692 -42.2629 -88.0819 10.0652 -63.3332 16.2506 1.01532e-09 9.92651e-11 -2.84157e-10 1.75731e-09 2.09459e-10 -4.34053e-10 1.01533e-09 9.9277e-11 -2.84141e-10 -7.73091 5.47488 -0.417314 1.01532e-09 9.92675e-11 -2.84157e-10 -2.90554 0.965183 -0.102902 1.01532e-09 9.92713e-11 -2.84163e-10 -10.2786 0.731801 -0.0259123 1.01532e-09 9.92687e-11 -2.84179e-10 -2.22167 -0.733487 0.20892 -2.03217e-16 0.0 -3.88251e-19 13.7852 -41.3734 25.5539 -0.983655 62.3621 1.46477 -5.22081 8.27119 13.8161 2.03217e-16 0.0 3.88251e-19 2.85622 -37.4065 -3.60598 0.227322 40.5411 -1.86986 4.70778 -7.71285 27.2148
